<svg width="240" height="74" viewBox="0 0 240 74" fill="none" xmlns="http://www.w3.org/2000/svg">
<path fillRule="evenodd" clipRule="evenodd" d="M104.921 22.8394C103.696 23.9749 103 25.5694 103 27.2396L103 44C103 47.3137 105.686 50 109 50C112.314 50 115 47.3137 115 44L115 16V16C115 14.9532 113.77 14.6358 113.003 15.3474L104.921 22.8394Z" fill="#E6A321"/>
<path fillRule="evenodd" clipRule="evenodd" d="M60 10.742C60 11.2569 60.1986 11.752 60.5545 12.1242L77.2767 29.6118C82.0026 34.5539 89.8967 34.5539 94.6226 29.6118L113.236 10.1467C115.526 7.75174 115.441 3.9537 113.046 1.66354C110.651 -0.62661 106.853 -0.541641 104.563 1.85332L87.3952 19.8067C86.6075 20.6304 85.2918 20.6304 84.5042 19.8067L67.3365 1.85332C65.6662 0.106561 63.1937 -0.411405 61.0486 0.324691C60.3732 0.556448 60 1.24201 60 1.95606V10.742Z" fill="#E6A321"/>
<rect x="3" y="19" width="46" height="12" rx="6" fill="#E6A321"/>
<path fillRule="evenodd" clipRule="evenodd" d="M56 1C56 0.447715 55.5523 0 55 0H9C5.68629 0 3 2.68629 3 6C3 9.31371 5.68629 12 9 12H55C55.5523 12 56 11.5523 56 11V1Z" fill="#E6A321"/>
<path fillRule="evenodd" clipRule="evenodd" d="M56 39C56 38.4477 55.5523 38 55 38H9C5.68629 38 3 40.6863 3 44C3 47.3137 5.68629 50 9 50H55C55.5523 50 56 49.5523 56 49V39Z" fill="#E6A321"/>
<path fillRule="evenodd" clipRule="evenodd" d="M173 20.1889C173 19.9315 172.901 19.6839 172.723 19.4978L157.623 3.70662C152.897 -1.23554 145.003 -1.23554 140.277 3.70662L121.664 23.1717C119.373 25.5667 119.458 29.3647 121.853 31.6548C124.248 33.945 128.046 33.86 130.336 31.4651L148.227 12.7558C148.621 12.344 149.279 12.344 149.672 12.7558L167.563 31.4651C168.81 32.769 170.504 33.3882 172.175 33.3121C172.656 33.2902 173 32.8677 173 32.3858V20.1889Z" fill="#E6A321"/>
<path fillRule="evenodd" clipRule="evenodd" d="M173 38.9292C173 38.4407 172.647 38.0147 172.158 38.002C172.106 38.0007 172.053 38 172 38H126C122.686 38 120 40.6863 120 44C120 47.3137 122.686 50 126 50H172C172.053 50 172.106 49.9993 172.158 49.998C172.647 49.9853 173 49.5593 173 49.0708V38.9292Z" fill="#E6A321"/>
<path fillRule="evenodd" clipRule="evenodd" d="M177 48.9514C177 49.3752 177.266 49.7612 177.679 49.8541C178.104 49.9496 178.546 50 179 50H210.241C219.078 50 226.241 42.8366 226.241 34C226.241 25.1634 219.078 18 210.241 18H192.759C191.102 18 189.759 16.6569 189.759 15C189.759 13.3432 191.102 12 192.759 12H225C228.314 12 231 9.31371 231 6C231 2.68629 228.314 0 225 0H192.759C187.472 0 182.824 2.73513 180.152 6.86757C180.051 7.0239 180 7.20689 180 7.39305V22.607C180 22.7931 180.051 22.9761 180.152 23.1324C182.824 27.2649 187.472 30 192.759 30H210.241C212.451 30 214.241 31.7909 214.241 34C214.241 36.2091 212.451 38 210.241 38H179C178.546 38 178.104 38.0504 177.679 38.1459C177.266 38.2388 177 38.6248 177 39.0486V48.9514Z" fill="#E6A321"/>
<path d="M4.56 59.155H11.61V60.55H6.015V63.85H11.01V65.245H6.015V68.605H11.82V70H4.56V59.155ZM13.5802 66.16H16.3852V67.39H13.5802V66.16ZM18.9008 59.155H20.3558V70H18.9008V59.155ZM24.3711 63.79L24.4911 65.305L24.4311 65.065C24.6311 64.605 24.9561 64.24 25.4061 63.97C25.8561 63.69 26.3761 63.55 26.9661 63.55C27.5561 63.55 28.0361 63.725 28.4061 64.075C28.7861 64.415 28.9811 64.86 28.9911 65.41V70H27.5811V65.905C27.5711 65.565 27.4711 65.29 27.2811 65.08C27.1011 64.86 26.8161 64.75 26.4261 64.75C26.0661 64.75 25.7411 64.85 25.4511 65.05C25.1611 65.25 24.9311 65.525 24.7611 65.875C24.6011 66.225 24.5211 66.63 24.5211 67.09V70H23.1261V63.79H24.3711ZM32.0171 61.06H33.4121V63.82H35.1221V64.915H33.4121V70H32.0171V64.915H30.8771V63.82H32.0171V61.06ZM39.6878 70.15C38.9778 70.15 38.3678 70.01 37.8578 69.73C37.3478 69.44 36.9528 69.05 36.6728 68.56C36.4028 68.06 36.2678 67.49 36.2678 66.85C36.2678 66.24 36.4228 65.685 36.7328 65.185C37.0428 64.685 37.4578 64.285 37.9778 63.985C38.4978 63.685 39.0778 63.535 39.7178 63.535C40.5378 63.535 41.2178 63.775 41.7578 64.255C42.2978 64.735 42.6628 65.395 42.8528 66.235L37.7378 68.035L37.4078 67.21L41.6078 65.68L41.3078 65.875C41.1878 65.545 40.9878 65.26 40.7078 65.02C40.4278 64.77 40.0628 64.645 39.6128 64.645C39.2328 64.645 38.8928 64.74 38.5928 64.93C38.2928 65.11 38.0578 65.36 37.8878 65.68C37.7178 66 37.6328 66.365 37.6328 66.775C37.6328 67.205 37.7228 67.585 37.9028 67.915C38.0828 68.235 38.3278 68.49 38.6378 68.68C38.9578 68.86 39.3178 68.95 39.7178 68.95C39.9878 68.95 40.2478 68.9 40.4978 68.8C40.7578 68.7 40.9978 68.57 41.2178 68.41L41.8628 69.445C41.5528 69.655 41.2028 69.825 40.8128 69.955C40.4328 70.085 40.0578 70.15 39.6878 70.15ZM47.5857 73.075C47.1257 73.075 46.7207 73.02 46.3707 72.91C46.0207 72.81 45.7007 72.665 45.4107 72.475C45.1307 72.285 44.8607 72.07 44.6007 71.83L45.4107 70.885C45.7407 71.195 46.0757 71.435 46.4157 71.605C46.7557 71.775 47.1357 71.86 47.5557 71.86C48.0257 71.86 48.4207 71.78 48.7407 71.62C49.0707 71.47 49.3207 71.255 49.4907 70.975C49.6607 70.705 49.7457 70.39 49.7457 70.03L49.7607 68.35L49.8807 68.62C49.7007 69.05 49.3757 69.415 48.9057 69.715C48.4357 70.005 47.8657 70.15 47.1957 70.15C46.6257 70.15 46.1007 70.005 45.6207 69.715C45.1507 69.425 44.7707 69.035 44.4807 68.545C44.2007 68.045 44.0607 67.485 44.0607 66.865C44.0607 66.215 44.2107 65.645 44.5107 65.155C44.8107 64.655 45.2057 64.26 45.6957 63.97C46.1857 63.68 46.7207 63.535 47.3007 63.535C47.8507 63.535 48.3507 63.65 48.8007 63.88C49.2607 64.1 49.5957 64.385 49.8057 64.735L49.7307 64.99L49.8807 63.79H51.1557V70.045C51.1557 70.605 51.0107 71.115 50.7207 71.575C50.4307 72.035 50.0207 72.4 49.4907 72.67C48.9607 72.94 48.3257 73.075 47.5857 73.075ZM45.4557 66.835C45.4557 67.235 45.5507 67.6 45.7407 67.93C45.9307 68.26 46.1857 68.52 46.5057 68.71C46.8357 68.9 47.2007 68.995 47.6007 68.995C47.9707 68.995 48.3007 68.93 48.5907 68.8C48.8907 68.66 49.1407 68.475 49.3407 68.245C49.5407 68.005 49.6807 67.73 49.7607 67.42V66.19C49.6707 65.89 49.5207 65.63 49.3107 65.41C49.1007 65.18 48.8507 65.005 48.5607 64.885C48.2707 64.755 47.9507 64.69 47.6007 64.69C47.2007 64.69 46.8357 64.78 46.5057 64.96C46.1857 65.14 45.9307 65.395 45.7407 65.725C45.5507 66.045 45.4557 66.415 45.4557 66.835ZM54.8106 63.79L54.9456 65.59L54.8706 65.35C55.0306 64.97 55.2606 64.65 55.5606 64.39C55.8706 64.12 56.1906 63.915 56.5206 63.775C56.8606 63.625 57.1556 63.55 57.4056 63.55L57.3306 64.93C56.8606 64.9 56.4456 64.99 56.0856 65.2C55.7356 65.41 55.4556 65.69 55.2456 66.04C55.0456 66.39 54.9456 66.765 54.9456 67.165V70H53.5656V63.79H54.8106ZM61.6388 70.15C61.0588 70.15 60.5288 70.025 60.0487 69.775C59.5788 69.525 59.2038 69.16 58.9238 68.68C58.6538 68.19 58.5188 67.595 58.5188 66.895C58.5188 66.205 58.6638 65.61 58.9538 65.11C59.2438 64.6 59.6288 64.21 60.1088 63.94C60.5988 63.67 61.1338 63.535 61.7138 63.535C62.2938 63.535 62.7838 63.67 63.1838 63.94C63.5838 64.2 63.8888 64.51 64.0988 64.87L64.0088 65.11L64.1438 63.79H65.4338V70H64.0388V68.38L64.1888 68.74C64.1488 68.84 64.0588 68.97 63.9188 69.13C63.7888 69.28 63.6088 69.435 63.3788 69.595C63.1588 69.755 62.9038 69.89 62.6138 70C62.3238 70.1 61.9988 70.15 61.6388 70.15ZM62.0138 68.995C62.3638 68.995 62.6788 68.93 62.9588 68.8C63.2388 68.67 63.4688 68.49 63.6488 68.26C63.8388 68.02 63.9688 67.735 64.0388 67.405V66.19C63.9588 65.89 63.8188 65.63 63.6188 65.41C63.4188 65.18 63.1788 65.005 62.8988 64.885C62.6188 64.755 62.3088 64.69 61.9688 64.69C61.5988 64.69 61.2588 64.78 60.9488 64.96C60.6388 65.14 60.3888 65.39 60.1988 65.71C60.0188 66.03 59.9288 66.405 59.9288 66.835C59.9288 67.235 60.0238 67.6 60.2138 67.93C60.4038 68.26 60.6588 68.52 60.9788 68.71C61.2988 68.9 61.6438 68.995 62.0138 68.995ZM68.4478 61.06H69.8428V63.82H71.5528V64.915H69.8428V70H68.4478V64.915H67.3078V63.82H68.4478V61.06ZM76.1184 70.15C75.4084 70.15 74.7984 70.01 74.2884 69.73C73.7784 69.44 73.3834 69.05 73.1034 68.56C72.8334 68.06 72.6984 67.49 72.6984 66.85C72.6984 66.24 72.8534 65.685 73.1634 65.185C73.4734 64.685 73.8884 64.285 74.4084 63.985C74.9284 63.685 75.5084 63.535 76.1484 63.535C76.9684 63.535 77.6484 63.775 78.1884 64.255C78.7284 64.735 79.0934 65.395 79.2834 66.235L74.1684 68.035L73.8384 67.21L78.0384 65.68L77.7384 65.875C77.6184 65.545 77.4184 65.26 77.1384 65.02C76.8584 64.77 76.4934 64.645 76.0434 64.645C75.6634 64.645 75.3234 64.74 75.0234 64.93C74.7234 65.11 74.4884 65.36 74.3184 65.68C74.1484 66 74.0634 66.365 74.0634 66.775C74.0634 67.205 74.1534 67.585 74.3334 67.915C74.5134 68.235 74.7584 68.49 75.0684 68.68C75.3884 68.86 75.7484 68.95 76.1484 68.95C76.4184 68.95 76.6784 68.9 76.9284 68.8C77.1884 68.7 77.4284 68.57 77.6484 68.41L78.2934 69.445C77.9834 69.655 77.6334 69.825 77.2434 69.955C76.8634 70.085 76.4884 70.15 76.1184 70.15ZM83.5514 70.15C82.9814 70.15 82.4614 70.015 81.9914 69.745C81.5314 69.465 81.1664 69.075 80.8964 68.575C80.6264 68.065 80.4914 67.48 80.4914 66.82C80.4914 66.13 80.6314 65.54 80.9114 65.05C81.2014 64.56 81.5914 64.185 82.0814 63.925C82.5714 63.665 83.1214 63.535 83.7314 63.535C84.2214 63.535 84.6864 63.64 85.1264 63.85C85.5764 64.06 85.9264 64.35 86.1764 64.72L86.1164 65.215V58.39H87.4964V70H86.1014V68.455L86.2514 68.845C85.9614 69.225 85.5864 69.54 85.1264 69.79C84.6664 70.03 84.1414 70.15 83.5514 70.15ZM83.9864 68.965C84.3564 68.965 84.6864 68.9 84.9764 68.77C85.2664 68.63 85.5064 68.44 85.6964 68.2C85.8864 67.96 86.0214 67.675 86.1014 67.345V66.175C86.0214 65.875 85.8764 65.615 85.6664 65.395C85.4664 65.165 85.2214 64.985 84.9314 64.855C84.6514 64.715 84.3364 64.645 83.9864 64.645C83.6064 64.645 83.2564 64.74 82.9364 64.93C82.6264 65.11 82.3764 65.36 82.1864 65.68C81.9964 66 81.9014 66.37 81.9014 66.79C81.9014 67.2 81.9964 67.57 82.1864 67.9C82.3764 68.22 82.6314 68.48 82.9514 68.68C83.2714 68.87 83.6164 68.965 83.9864 68.965ZM95.0141 70V58.81H95.0291L100.714 66.88L100.099 66.76L105.769 58.81H105.799V70H104.359V62.11L104.449 62.845L100.354 68.635H100.324L96.1691 62.845L96.4241 62.17V70H95.0141ZM111.15 70.15C110.57 70.15 110.04 70.025 109.56 69.775C109.09 69.525 108.715 69.16 108.435 68.68C108.165 68.19 108.03 67.595 108.03 66.895C108.03 66.205 108.175 65.61 108.465 65.11C108.755 64.6 109.14 64.21 109.62 63.94C110.11 63.67 110.645 63.535 111.225 63.535C111.805 63.535 112.295 63.67 112.695 63.94C113.095 64.2 113.4 64.51 113.61 64.87L113.52 65.11L113.655 63.79H114.945V70H113.55V68.38L113.7 68.74C113.66 68.84 113.57 68.97 113.43 69.13C113.3 69.28 113.12 69.435 112.89 69.595C112.67 69.755 112.415 69.89 112.125 70C111.835 70.1 111.51 70.15 111.15 70.15ZM111.525 68.995C111.875 68.995 112.19 68.93 112.47 68.8C112.75 68.67 112.98 68.49 113.16 68.26C113.35 68.02 113.48 67.735 113.55 67.405V66.19C113.47 65.89 113.33 65.63 113.13 65.41C112.93 65.18 112.69 65.005 112.41 64.885C112.13 64.755 111.82 64.69 111.48 64.69C111.11 64.69 110.77 64.78 110.46 64.96C110.15 65.14 109.9 65.39 109.71 65.71C109.53 66.03 109.44 66.405 109.44 66.835C109.44 67.235 109.535 67.6 109.725 67.93C109.915 68.26 110.17 68.52 110.49 68.71C110.81 68.9 111.155 68.995 111.525 68.995ZM118.605 63.79L118.725 65.305L118.665 65.065C118.865 64.605 119.19 64.24 119.64 63.97C120.09 63.69 120.61 63.55 121.2 63.55C121.79 63.55 122.27 63.725 122.64 64.075C123.02 64.415 123.215 64.86 123.225 65.41V70H121.815V65.905C121.805 65.565 121.705 65.29 121.515 65.08C121.335 64.86 121.05 64.75 120.66 64.75C120.3 64.75 119.975 64.85 119.685 65.05C119.395 65.25 119.165 65.525 118.995 65.875C118.835 66.225 118.755 66.63 118.755 67.09V70H117.36V63.79H118.605ZM128.231 70.15C127.651 70.15 127.121 70.025 126.641 69.775C126.171 69.525 125.796 69.16 125.516 68.68C125.246 68.19 125.111 67.595 125.111 66.895C125.111 66.205 125.256 65.61 125.546 65.11C125.836 64.6 126.221 64.21 126.701 63.94C127.191 63.67 127.726 63.535 128.306 63.535C128.886 63.535 129.376 63.67 129.776 63.94C130.176 64.2 130.481 64.51 130.691 64.87L130.601 65.11L130.736 63.79H132.026V70H130.631V68.38L130.781 68.74C130.741 68.84 130.651 68.97 130.511 69.13C130.381 69.28 130.201 69.435 129.971 69.595C129.751 69.755 129.496 69.89 129.206 70C128.916 70.1 128.591 70.15 128.231 70.15ZM128.606 68.995C128.956 68.995 129.271 68.93 129.551 68.8C129.831 68.67 130.061 68.49 130.241 68.26C130.431 68.02 130.561 67.735 130.631 67.405V66.19C130.551 65.89 130.411 65.63 130.211 65.41C130.011 65.18 129.771 65.005 129.491 64.885C129.211 64.755 128.901 64.69 128.561 64.69C128.191 64.69 127.851 64.78 127.541 64.96C127.231 65.14 126.981 65.39 126.791 65.71C126.611 66.03 126.521 66.405 126.521 66.835C126.521 67.235 126.616 67.6 126.806 67.93C126.996 68.26 127.251 68.52 127.571 68.71C127.891 68.9 128.236 68.995 128.606 68.995ZM137.425 73.075C136.965 73.075 136.56 73.02 136.21 72.91C135.86 72.81 135.54 72.665 135.25 72.475C134.97 72.285 134.7 72.07 134.44 71.83L135.25 70.885C135.58 71.195 135.915 71.435 136.255 71.605C136.595 71.775 136.975 71.86 137.395 71.86C137.865 71.86 138.26 71.78 138.58 71.62C138.91 71.47 139.16 71.255 139.33 70.975C139.5 70.705 139.585 70.39 139.585 70.03L139.6 68.35L139.72 68.62C139.54 69.05 139.215 69.415 138.745 69.715C138.275 70.005 137.705 70.15 137.035 70.15C136.465 70.15 135.94 70.005 135.46 69.715C134.99 69.425 134.61 69.035 134.32 68.545C134.04 68.045 133.9 67.485 133.9 66.865C133.9 66.215 134.05 65.645 134.35 65.155C134.65 64.655 135.045 64.26 135.535 63.97C136.025 63.68 136.56 63.535 137.14 63.535C137.69 63.535 138.19 63.65 138.64 63.88C139.1 64.1 139.435 64.385 139.645 64.735L139.57 64.99L139.72 63.79H140.995V70.045C140.995 70.605 140.85 71.115 140.56 71.575C140.27 72.035 139.86 72.4 139.33 72.67C138.8 72.94 138.165 73.075 137.425 73.075ZM135.295 66.835C135.295 67.235 135.39 67.6 135.58 67.93C135.77 68.26 136.025 68.52 136.345 68.71C136.675 68.9 137.04 68.995 137.44 68.995C137.81 68.995 138.14 68.93 138.43 68.8C138.73 68.66 138.98 68.475 139.18 68.245C139.38 68.005 139.52 67.73 139.6 67.42V66.19C139.51 65.89 139.36 65.63 139.15 65.41C138.94 65.18 138.69 65.005 138.4 64.885C138.11 64.755 137.79 64.69 137.44 64.69C137.04 64.69 136.675 64.78 136.345 64.96C136.025 65.14 135.77 65.395 135.58 65.725C135.39 66.045 135.295 66.415 135.295 66.835ZM146.284 70.15C145.574 70.15 144.964 70.01 144.454 69.73C143.944 69.44 143.549 69.05 143.269 68.56C142.999 68.06 142.864 67.49 142.864 66.85C142.864 66.24 143.019 65.685 143.329 65.185C143.639 64.685 144.054 64.285 144.574 63.985C145.094 63.685 145.674 63.535 146.314 63.535C147.134 63.535 147.814 63.775 148.354 64.255C148.894 64.735 149.259 65.395 149.449 66.235L144.334 68.035L144.004 67.21L148.204 65.68L147.904 65.875C147.784 65.545 147.584 65.26 147.304 65.02C147.024 64.77 146.659 64.645 146.209 64.645C145.829 64.645 145.489 64.74 145.189 64.93C144.889 65.11 144.654 65.36 144.484 65.68C144.314 66 144.229 66.365 144.229 66.775C144.229 67.205 144.319 67.585 144.499 67.915C144.679 68.235 144.924 68.49 145.234 68.68C145.554 68.86 145.914 68.95 146.314 68.95C146.584 68.95 146.844 68.9 147.094 68.8C147.354 68.7 147.594 68.57 147.814 68.41L148.459 69.445C148.149 69.655 147.799 69.825 147.409 69.955C147.029 70.085 146.654 70.15 146.284 70.15ZM152.442 63.79L152.562 65.185L152.502 65.065C152.732 64.595 153.057 64.225 153.477 63.955C153.907 63.685 154.397 63.55 154.947 63.55C155.297 63.55 155.607 63.605 155.877 63.715C156.147 63.825 156.367 63.985 156.537 64.195C156.717 64.395 156.832 64.645 156.882 64.945L156.807 64.99C157.047 64.54 157.377 64.19 157.797 63.94C158.227 63.68 158.677 63.55 159.147 63.55C159.757 63.55 160.237 63.725 160.587 64.075C160.947 64.415 161.132 64.86 161.142 65.41V70H159.747V65.905C159.737 65.585 159.657 65.32 159.507 65.11C159.367 64.89 159.117 64.77 158.757 64.75C158.397 64.75 158.072 64.86 157.782 65.08C157.502 65.3 157.282 65.585 157.122 65.935C156.962 66.275 156.877 66.645 156.867 67.045V70H155.472V65.905C155.462 65.585 155.377 65.32 155.217 65.11C155.067 64.89 154.812 64.77 154.452 64.75C154.082 64.75 153.757 64.86 153.477 65.08C153.197 65.3 152.977 65.585 152.817 65.935C152.667 66.285 152.592 66.66 152.592 67.06V70H151.197V63.79H152.442ZM166.455 70.15C165.745 70.15 165.135 70.01 164.625 69.73C164.115 69.44 163.72 69.05 163.44 68.56C163.17 68.06 163.035 67.49 163.035 66.85C163.035 66.24 163.19 65.685 163.5 65.185C163.81 64.685 164.225 64.285 164.745 63.985C165.265 63.685 165.845 63.535 166.485 63.535C167.305 63.535 167.985 63.775 168.525 64.255C169.065 64.735 169.43 65.395 169.62 66.235L164.505 68.035L164.175 67.21L168.375 65.68L168.075 65.875C167.955 65.545 167.755 65.26 167.475 65.02C167.195 64.77 166.83 64.645 166.38 64.645C166 64.645 165.66 64.74 165.36 64.93C165.06 65.11 164.825 65.36 164.655 65.68C164.485 66 164.4 66.365 164.4 66.775C164.4 67.205 164.49 67.585 164.67 67.915C164.85 68.235 165.095 68.49 165.405 68.68C165.725 68.86 166.085 68.95 166.485 68.95C166.755 68.95 167.015 68.9 167.265 68.8C167.525 68.7 167.765 68.57 167.985 68.41L168.63 69.445C168.32 69.655 167.97 69.825 167.58 69.955C167.2 70.085 166.825 70.15 166.455 70.15ZM172.613 63.79L172.733 65.305L172.673 65.065C172.873 64.605 173.198 64.24 173.648 63.97C174.098 63.69 174.618 63.55 175.208 63.55C175.798 63.55 176.278 63.725 176.648 64.075C177.028 64.415 177.223 64.86 177.233 65.41V70H175.823V65.905C175.813 65.565 175.713 65.29 175.523 65.08C175.343 64.86 175.058 64.75 174.668 64.75C174.308 64.75 173.983 64.85 173.693 65.05C173.403 65.25 173.173 65.525 173.003 65.875C172.843 66.225 172.763 66.63 172.763 67.09V70H171.368V63.79H172.613ZM180.259 61.06H181.654V63.82H183.364V64.915H181.654V70H180.259V64.915H179.119V63.82H180.259V61.06ZM195.751 61.09C195.381 60.9 194.976 60.735 194.536 60.595C194.096 60.455 193.666 60.385 193.246 60.385C192.666 60.385 192.201 60.52 191.851 60.79C191.511 61.06 191.341 61.42 191.341 61.87C191.341 62.21 191.451 62.5 191.671 62.74C191.891 62.97 192.181 63.17 192.541 63.34C192.901 63.51 193.276 63.67 193.666 63.82C194.006 63.95 194.341 64.095 194.671 64.255C195.001 64.415 195.296 64.615 195.556 64.855C195.826 65.095 196.036 65.39 196.186 65.74C196.346 66.09 196.426 66.525 196.426 67.045C196.426 67.615 196.281 68.135 195.991 68.605C195.711 69.075 195.306 69.445 194.776 69.715C194.246 69.985 193.616 70.12 192.886 70.12C192.406 70.12 191.946 70.065 191.506 69.955C191.076 69.845 190.676 69.705 190.306 69.535C189.936 69.355 189.606 69.17 189.316 68.98L189.961 67.84C190.201 68.01 190.476 68.175 190.786 68.335C191.096 68.485 191.421 68.61 191.761 68.71C192.101 68.8 192.431 68.845 192.751 68.845C193.091 68.845 193.426 68.785 193.756 68.665C194.096 68.535 194.376 68.34 194.596 68.08C194.816 67.82 194.926 67.475 194.926 67.045C194.926 66.675 194.826 66.37 194.626 66.13C194.436 65.88 194.181 65.67 193.861 65.5C193.541 65.32 193.201 65.16 192.841 65.02C192.501 64.89 192.156 64.75 191.806 64.6C191.456 64.44 191.131 64.25 190.831 64.03C190.531 63.8 190.291 63.52 190.111 63.19C189.931 62.86 189.841 62.46 189.841 61.99C189.841 61.42 189.976 60.925 190.246 60.505C190.526 60.075 190.906 59.74 191.386 59.5C191.866 59.25 192.416 59.115 193.036 59.095C193.736 59.095 194.351 59.18 194.881 59.35C195.421 59.52 195.896 59.73 196.306 59.98L195.751 61.09ZM199.052 72.985L203.147 63.79H204.437L200.432 72.985H199.052ZM200.582 70.045L197.597 63.79H199.172L201.677 69.34L200.582 70.045ZM207.679 70.12C207.239 70.12 206.809 70.045 206.389 69.895C205.979 69.735 205.639 69.5 205.369 69.19L205.954 68.38C206.214 68.63 206.479 68.82 206.749 68.95C207.029 69.07 207.304 69.13 207.574 69.13C207.774 69.13 207.959 69.105 208.129 69.055C208.299 69.005 208.434 68.925 208.534 68.815C208.644 68.695 208.699 68.535 208.699 68.335C208.699 68.115 208.624 67.94 208.474 67.81C208.334 67.68 208.149 67.575 207.919 67.495C207.699 67.415 207.464 67.34 207.214 67.27C206.704 67.1 206.314 66.865 206.044 66.565C205.774 66.265 205.639 65.9 205.639 65.47C205.639 65.14 205.719 64.835 205.879 64.555C206.049 64.265 206.294 64.03 206.614 63.85C206.944 63.67 207.349 63.58 207.829 63.58C208.259 63.58 208.644 63.635 208.984 63.745C209.324 63.845 209.644 64.015 209.944 64.255L209.389 65.125C209.209 64.935 208.994 64.795 208.744 64.705C208.494 64.615 208.269 64.565 208.069 64.555C207.899 64.545 207.734 64.57 207.574 64.63C207.424 64.69 207.299 64.775 207.199 64.885C207.099 64.995 207.049 65.125 207.049 65.275C207.049 65.485 207.119 65.655 207.259 65.785C207.399 65.915 207.579 66.02 207.799 66.1C208.029 66.17 208.254 66.245 208.474 66.325C208.784 66.415 209.059 66.535 209.299 66.685C209.539 66.835 209.729 67.02 209.869 67.24C210.019 67.46 210.094 67.735 210.094 68.065C210.094 68.435 210.004 68.78 209.824 69.1C209.654 69.41 209.389 69.66 209.029 69.85C208.679 70.03 208.229 70.12 207.679 70.12ZM212.647 61.06H214.042V63.82H215.752V64.915H214.042V70H212.647V64.915H211.507V63.82H212.647V61.06ZM220.318 70.15C219.608 70.15 218.998 70.01 218.488 69.73C217.978 69.44 217.583 69.05 217.303 68.56C217.033 68.06 216.898 67.49 216.898 66.85C216.898 66.24 217.053 65.685 217.363 65.185C217.673 64.685 218.088 64.285 218.608 63.985C219.128 63.685 219.708 63.535 220.348 63.535C221.168 63.535 221.848 63.775 222.388 64.255C222.928 64.735 223.293 65.395 223.483 66.235L218.368 68.035L218.038 67.21L222.238 65.68L221.938 65.875C221.818 65.545 221.618 65.26 221.338 65.02C221.058 64.77 220.693 64.645 220.243 64.645C219.863 64.645 219.523 64.74 219.223 64.93C218.923 65.11 218.688 65.36 218.518 65.68C218.348 66 218.263 66.365 218.263 66.775C218.263 67.205 218.353 67.585 218.533 67.915C218.713 68.235 218.958 68.49 219.268 68.68C219.588 68.86 219.948 68.95 220.348 68.95C220.618 68.95 220.878 68.9 221.128 68.8C221.388 68.7 221.628 68.57 221.848 68.41L222.493 69.445C222.183 69.655 221.833 69.825 221.443 69.955C221.063 70.085 220.688 70.15 220.318 70.15ZM226.476 63.79L226.596 65.185L226.536 65.065C226.766 64.595 227.091 64.225 227.511 63.955C227.941 63.685 228.431 63.55 228.981 63.55C229.331 63.55 229.641 63.605 229.911 63.715C230.181 63.825 230.401 63.985 230.571 64.195C230.751 64.395 230.866 64.645 230.916 64.945L230.841 64.99C231.081 64.54 231.411 64.19 231.831 63.94C232.261 63.68 232.711 63.55 233.181 63.55C233.791 63.55 234.271 63.725 234.621 64.075C234.981 64.415 235.166 64.86 235.176 65.41V70H233.781V65.905C233.771 65.585 233.691 65.32 233.541 65.11C233.401 64.89 233.151 64.77 232.791 64.75C232.431 64.75 232.106 64.86 231.816 65.08C231.536 65.3 231.316 65.585 231.156 65.935C230.996 66.275 230.911 66.645 230.901 67.045V70H229.506V65.905C229.496 65.585 229.411 65.32 229.251 65.11C229.101 64.89 228.846 64.77 228.486 64.75C228.116 64.75 227.791 64.86 227.511 65.08C227.231 65.3 227.011 65.585 226.851 65.935C226.701 66.285 226.626 66.66 226.626 67.06V70H225.231V63.79H226.476Z" fill="#3F3E3D" fillOpacity="0.7"/>
</svg>
