<svg width="112" height="112" viewBox="0 0 112 112" fill="none" xmlns="http://www.w3.org/2000/svg">
<path fill-rule="evenodd" clip-rule="evenodd" d="M101.921 24.8394C100.696 25.9749 100 27.5694 100 29.2396L100 46C100 49.3137 102.686 52 106 52C109.314 52 112 49.3137 112 46L112 18V18C112 16.9532 110.77 16.6358 110.003 17.3474L101.921 24.8394Z" fill="#E6A321"/>
<path fill-rule="evenodd" clip-rule="evenodd" d="M57 12.742C57 13.2569 57.1986 13.752 57.5545 14.1242L74.2767 31.6118C79.0026 36.5539 86.8967 36.5539 91.6226 31.6118L110.236 12.1467C112.526 9.75174 112.441 5.9537 110.046 3.66354C107.651 1.37339 103.853 1.45836 101.563 3.85332L84.3952 21.8067C83.6075 22.6304 82.2918 22.6304 81.5042 21.8067L64.3365 3.85332C62.6662 2.10656 60.1937 1.5886 58.0486 2.32469C57.3732 2.55645 57 3.24201 57 3.95606V12.742Z" fill="#E6A321"/>
<rect y="21" width="46" height="12" rx="6" fill="#E6A321"/>
<path fill-rule="evenodd" clip-rule="evenodd" d="M53 3C53 2.44772 52.5523 2 52 2H6C2.68629 2 0 4.68629 0 8C0 11.3137 2.68629 14 6 14H52C52.5523 14 53 13.5523 53 13V3Z" fill="#E6A321"/>
<path fill-rule="evenodd" clip-rule="evenodd" d="M53 41C53 40.4477 52.5523 40 52 40H6C2.68629 40 0 42.6863 0 46C0 49.3137 2.68629 52 6 52H52C52.5523 52 53 51.5523 53 51V41Z" fill="#E6A321"/>
<path fill-rule="evenodd" clip-rule="evenodd" d="M53 80.1889C53 79.9315 52.9007 79.6839 52.7227 79.4978L37.6226 63.7066C32.8967 58.7645 25.0026 58.7645 20.2767 63.7066L1.66354 83.1717C-0.626613 85.5667 -0.541646 89.3647 1.85332 91.6548C4.24829 93.945 8.04632 93.86 10.3365 91.4651L28.2269 72.7558C28.6208 72.344 29.2786 72.344 29.6724 72.7558L47.5629 91.4651C48.8097 92.769 50.5036 93.3882 52.1746 93.3121C52.656 93.2902 53 92.8677 53 92.3858V80.1889Z" fill="#E6A321"/>
<path fill-rule="evenodd" clip-rule="evenodd" d="M53 98.9292C53 98.4407 52.6466 98.0147 52.1584 98.002C52.1057 98.0007 52.053 98 52 98H6C2.68629 98 0 100.686 0 104C0 107.314 2.68629 110 6 110H52C52.053 110 52.1057 109.999 52.1584 109.998C52.6466 109.985 53 109.559 53 109.071V98.9292Z" fill="#E6A321"/>
<path fill-rule="evenodd" clip-rule="evenodd" d="M56 108.621C56 108.977 56.1876 109.313 56.5124 109.462C57.2703 109.807 58.1126 110 59 110H90.2414C99.0779 110 106.241 102.837 106.241 94C106.241 85.1634 99.0779 78 90.2414 78H72.7586C71.1018 78 69.7586 76.6569 69.7586 75C69.7586 73.3432 71.1018 72 72.7586 72H105C108.314 72 111 69.3137 111 66C111 62.6863 108.314 60 105 60H72.7586C64.4744 60 57.7586 66.7157 57.7586 75C57.7586 83.2843 64.4743 90 72.7586 90H90.2414C92.4505 90 94.2414 91.7909 94.2414 94C94.2414 96.2091 92.4505 98 90.2414 98H59C58.1126 98 57.2703 98.1926 56.5124 98.5384C56.1876 98.6865 56 99.0225 56 99.3795V108.621Z" fill="#E6A321"/>
</svg>
